<svg width="34" height="34" viewBox="0 0 34 34" fill="none" xmlns="http://www.w3.org/2000/svg">
<circle cx="17" cy="17" r="16.5" fill="white" stroke="#6C6C6C" stroke-dasharray="8 8"/>
<path fill-rule="evenodd" clip-rule="evenodd" d="M17.4167 17.4166V20.3333C17.4167 20.4438 17.3728 20.5498 17.2946 20.6279C17.2165 20.706 17.1105 20.7499 17 20.7499C16.8895 20.7499 16.7835 20.706 16.7054 20.6279C16.6272 20.5498 16.5833 20.4438 16.5833 20.3333V17.4166H13.6667C13.5562 17.4166 13.4502 17.3727 13.372 17.2946C13.2939 17.2164 13.25 17.1104 13.25 16.9999C13.25 16.8894 13.2939 16.7835 13.372 16.7053C13.4502 16.6272 13.5562 16.5833 13.6667 16.5833H16.5833V13.6666C16.5833 13.5561 16.6272 13.4501 16.7054 13.372C16.7835 13.2938 16.8895 13.2499 17 13.2499C17.1105 13.2499 17.2165 13.2938 17.2946 13.372C17.3728 13.4501 17.4167 13.5561 17.4167 13.6666V16.5833H20.3333C20.4438 16.5833 20.5498 16.6272 20.628 16.7053C20.7061 16.7835 20.75 16.8894 20.75 16.9999C20.75 17.1104 20.7061 17.2164 20.628 17.2946C20.5498 17.3727 20.4438 17.4166 20.3333 17.4166H17.4167Z" fill="#3C3C3C"/>
</svg>
