<svg width="43" height="42" viewBox="0 0 43 42" fill="none" xmlns="http://www.w3.org/2000/svg">
<path d="M19.7563 1.10379C20.5207 -0.25677 22.4793 -0.256769 23.2437 1.10379L28.812 11.0155C29.0976 11.524 29.591 11.8824 30.1629 11.997L41.3102 14.2299C42.8403 14.5364 43.4456 16.3992 42.3878 17.5465L34.6819 25.9052C34.2866 26.334 34.0982 26.914 34.1659 27.4933L35.487 38.785C35.6684 40.335 34.0838 41.4862 32.6657 40.8348L22.3349 36.089C21.8049 35.8456 21.1951 35.8456 20.6651 36.089L10.3343 40.8348C8.9162 41.4862 7.33161 40.335 7.51296 38.785L8.83406 27.4933C8.90183 26.914 8.71338 26.334 8.31807 25.9052L0.612165 17.5465C-0.445604 16.3992 0.159657 14.5364 1.68982 14.2299L12.8371 11.997C13.409 11.8824 13.9024 11.524 14.188 11.0155L19.7563 1.10379Z" fill="#6C6C6C"/>
</svg>
