<svg width="146" height="81" viewBox="0 0 146 81" fill="none" xmlns="http://www.w3.org/2000/svg">
<path fill-rule="evenodd" clip-rule="evenodd" d="M78.1448 44.1212L93.7593 50.1539L94.7513 55.6478L94.7516 55.6477L95.5982 60.3366L72.1528 64.57L72.9214 68.8264L83.3582 72.9986L91.6769 65.4399L91.4323 64.0855L96.1219 63.2387L96.8551 67.299L84.3363 78.4115L68.7218 72.3788L65.626 55.2337L78.1448 44.1212ZM71.3062 59.8811L90.0617 56.4946L89.5587 53.709L79.1219 49.5368L70.8032 57.0955L71.3062 59.8811Z" fill="#FFE000"/>
<ellipse rx="6.32366" ry="13.6516" transform="matrix(-0.930899 -0.365276 -0.365276 0.930899 83.1834 19.9994)" fill="#B1B1B1"/>
<ellipse rx="6.32365" ry="13.6516" transform="matrix(-0.693081 -0.72086 -0.72086 0.693081 89.3955 26.0472)" fill="#B1B1B1"/>
<ellipse cx="66.4961" cy="24.1496" rx="6.32365" ry="13.6516" transform="rotate(-46.4995 66.4961 24.1496)" fill="#D2D2D2"/>
<ellipse cx="63.4328" cy="32.2612" rx="6.32365" ry="13.6516" transform="rotate(-71.2004 63.4328 32.2612)" fill="#D2D2D2"/>
<path d="M91.9566 24.0899L100.259 34.624L95.2872 47.0811L82.0132 49.0041L73.7109 38.4699L78.6826 26.0128L91.9566 24.0899Z" fill="#3D3939"/>
<path fill-rule="evenodd" clip-rule="evenodd" d="M94.6791 18.1634C95.5759 20.8514 97.5188 24.0086 99.2746 26.4068C99.6155 26.8726 99.3755 27.5431 98.8128 27.6715C98.5141 27.7397 98.2031 27.6299 98.0176 27.3861C95.9743 24.6998 93.4847 20.8182 92.3557 17.434C91.7583 15.6432 91.5249 13.9398 91.9967 12.6446C92.4184 11.487 93.3877 10.7008 95.0368 10.4397C95.4521 10.3739 95.8569 10.5791 96.0926 10.9274C96.6036 11.6829 96.0527 12.6937 95.288 13.1908C94.8323 13.4871 94.5373 13.8847 94.3665 14.3534C94.0156 15.3169 94.1704 16.6384 94.6791 18.1634Z" fill="#221D1D"/>
<path fill-rule="evenodd" clip-rule="evenodd" d="M108.906 18.5732C107.811 20.74 107.025 23.8118 106.574 26.3581C106.478 26.9034 105.811 27.1359 105.407 26.7577C105.244 26.605 105.165 26.3828 105.198 26.1618C105.657 23.128 106.603 19.0329 108.048 16.1721C109.491 13.3168 111.455 11.6684 113.863 13.6169C114.153 13.8515 114.275 14.2315 114.22 14.6004C114.08 15.5339 112.864 15.8471 111.92 15.8315C110.738 15.812 109.739 16.924 108.906 18.5732Z" fill="#221D1D"/>
<path d="M0 41H18.6564C22.287 41 25.001 41.7826 26.7983 43.3477C28.5956 44.9128 29.4943 47.2787 29.4943 50.4454C29.4943 53.1025 28.9731 55.1226 27.9306 56.5057C26.9241 57.8525 25.2885 58.7807 23.0239 59.2902V59.5086C25.4683 60.0546 27.2117 60.9828 28.2541 62.2931C29.2966 63.6034 29.8178 65.6964 29.8178 68.5718C29.8178 71.8841 28.9371 74.3774 27.1757 76.0517C25.4503 77.7261 22.5925 78.5632 18.6024 78.5632H0V41ZM15.2594 55.9598C16.5894 55.9598 17.578 55.8688 18.225 55.6868C18.872 55.4684 19.3214 55.1044 19.573 54.5948C19.8246 54.0853 19.9504 53.3209 19.9504 52.3017C19.9504 51.2462 19.8246 50.4636 19.573 49.954C19.3573 49.4444 18.926 49.0987 18.2789 48.9167C17.6678 48.7347 16.6613 48.6437 15.2594 48.6437H9.32818V55.9598H15.2594ZM15.529 70.9195C16.895 70.9195 17.9015 70.8285 18.5485 70.6466C19.1956 70.4282 19.6449 70.0642 19.8965 69.5546C20.1481 69.045 20.274 68.2443 20.274 67.1523C20.274 66.0239 20.1481 65.1868 19.8965 64.6408C19.6808 64.0948 19.2315 63.7308 18.5485 63.5489C17.9015 63.3305 16.895 63.2213 15.529 63.2213H9.32818V70.9195H15.529Z" fill="#221D1D"/>
<path d="M60 66.8247H43.5544C43.5544 68.5718 43.6802 69.7912 43.9318 70.4828C44.2194 71.1743 44.8125 71.6293 45.7112 71.8477C46.6458 72.0661 48.2993 72.1753 50.6718 72.1753C53.224 72.1753 55.974 72.0297 58.9216 71.7385V78.0172C57.7713 78.3084 56.2256 78.545 54.2845 78.727C52.3793 78.909 50.4921 79 48.6229 79C44.4171 79 41.3437 78.545 39.4025 77.6351C37.4973 76.6887 36.2752 75.2692 35.736 73.3764C35.1968 71.4837 34.9272 68.59 34.9272 64.6954C34.9272 60.8736 35.1968 57.9981 35.736 56.069C36.2752 54.1398 37.4434 52.7021 39.2408 51.7557C41.0741 50.773 43.9318 50.2816 47.8141 50.2816C51.6963 50.2816 54.4822 50.7548 56.1717 51.7012C57.8971 52.6111 58.9575 53.9943 59.353 55.8506C59.7843 57.6705 60 60.6188 60 64.6954V66.8247ZM47.7601 56.6695C46.4661 56.6695 45.5314 56.7969 44.9563 57.0517C44.3811 57.3065 44.0037 57.8161 43.824 58.5805C43.6442 59.3084 43.5544 60.546 43.5544 62.2931H51.8581C51.8581 60.546 51.7502 59.2902 51.5345 58.5259C51.3189 57.7615 50.9414 57.2701 50.4022 57.0517C49.863 56.7969 48.9823 56.6695 47.7601 56.6695Z" fill="#221D1D"/>
<path d="M103.781 78.6958C105.317 78.6958 106.562 77.4508 106.562 75.9149V75.8493C106.562 74.3135 105.317 73.0684 103.781 73.0684C102.245 73.0684 101 74.3135 101 75.8493V75.9149C101 77.4508 102.245 78.6958 103.781 78.6958Z" fill="#221D1D"/>
<path d="M124.254 78.3536C122.371 78.7845 120.426 79 118.418 79C115.883 79 114.013 78.6324 112.808 77.8973C111.629 77.1369 110.876 76.0849 110.549 74.7414C110.223 73.398 110.06 71.4842 110.06 69C110.06 66.5919 110.223 64.7161 110.549 63.3726C110.901 62.0038 111.666 60.9392 112.846 60.1787C114.051 59.3929 115.896 59 118.381 59C120.539 59 122.447 59.2155 124.103 59.6464V64.057C122.748 63.8542 121.38 63.7529 119.999 63.7529C118.82 63.7529 117.966 63.8923 117.439 64.1711C116.937 64.4246 116.598 64.8935 116.423 65.5779C116.272 66.2624 116.197 67.403 116.197 69C116.197 70.597 116.272 71.7503 116.423 72.4601C116.598 73.1445 116.937 73.6134 117.439 73.8669C117.966 74.1204 118.832 74.2471 120.037 74.2471C121.367 74.2471 122.773 74.1458 124.254 73.943V78.3536Z" fill="#221D1D"/>
<path d="M136.488 79C133.627 79 131.568 78.7212 130.313 78.1635C129.058 77.5805 128.255 76.6426 127.904 75.3498C127.577 74.0317 127.414 71.9151 127.414 69C127.414 66.0596 127.577 63.943 127.904 62.6502C128.255 61.3574 129.058 60.4322 130.313 59.8745C131.568 59.2915 133.627 59 136.488 59C139.349 59 141.408 59.2915 142.663 59.8745C143.918 60.4322 144.708 61.3574 145.035 62.6502C145.386 63.943 145.562 66.0596 145.562 69C145.562 71.9151 145.386 74.0317 145.035 75.3498C144.708 76.6426 143.918 77.5805 142.663 78.1635C141.408 78.7212 139.349 79 136.488 79ZM136.488 74.2471C137.542 74.2471 138.258 74.1458 138.634 73.943C139.036 73.7148 139.274 73.2839 139.349 72.6502C139.45 72.0165 139.5 70.7997 139.5 69C139.5 67.1749 139.45 65.9455 139.349 65.3118C139.274 64.6781 139.036 64.2598 138.634 64.057C138.258 63.8542 137.542 63.7529 136.488 63.7529C135.434 63.7529 134.706 63.8542 134.304 64.057C133.928 64.2598 133.689 64.6781 133.589 65.3118C133.514 65.9455 133.476 67.1749 133.476 69C133.476 70.7997 133.514 72.0165 133.589 72.6502C133.689 73.2839 133.928 73.7148 134.304 73.943C134.706 74.1458 135.434 74.2471 136.488 74.2471Z" fill="#221D1D"/>
<path fill-rule="evenodd" clip-rule="evenodd" d="M112.43 32.886C112.715 31.8569 112.867 30.7727 112.867 29.653C112.867 22.9726 107.452 17.5571 100.771 17.5571C94.0908 17.5571 88.6753 22.9726 88.6753 29.653C88.6753 30.7727 88.8274 31.8569 89.1122 32.886H112.43Z" fill="#221D1D"/>
<circle cx="97.1298" cy="25.2973" r="2.52973" fill="#FAFAFA"/>
<circle cx="107.249" cy="25.2968" r="2.52973" fill="#FAFAFA"/>
</svg>
