<svg width="300" height="336" viewBox="0 0 300 336" fill="none" xmlns="http://www.w3.org/2000/svg">
<path fill-rule="evenodd" clip-rule="evenodd" d="M134.834 178.541L194.205 193.243L200.323 212.703L200.324 212.703L205.545 229.312L122.5 255.417L127.239 270.492L166.988 280.827L193.674 249.608L192.166 244.811L208.775 239.59L213.296 253.974L173.015 300.002L113.644 285.3L94.5528 224.569L134.834 178.541ZM117.279 238.809L183.714 217.924L180.612 208.056L140.863 197.722L114.177 228.94L117.279 238.809Z" fill="#FFE000"/>
<ellipse rx="23.1064" ry="49.8822" transform="matrix(-0.969407 -0.24546 -0.24546 0.969407 142.028 88.7963)" fill="#B1B1B1"/>
<ellipse rx="23.1064" ry="49.8822" transform="matrix(-0.778134 -0.628098 -0.628098 0.778134 167.322 107.867)" fill="#B1B1B1"/>
<ellipse cx="83.4434" cy="111.495" rx="23.1064" ry="49.8822" transform="rotate(-53.7151 83.4434 111.495)" fill="#D2D2D2"/>
<ellipse cx="76.0597" cy="142.307" rx="23.1064" ry="49.8822" transform="rotate(-78.416 76.0597 142.307)" fill="#D2D2D2"/>
<path d="M175.708 99.59L210.639 133.966L198.334 181.405L151.098 194.468L116.167 160.092L128.472 112.653L175.708 99.59Z" fill="#3D3939"/>
<path fill-rule="evenodd" clip-rule="evenodd" d="M178.864 75.5933C182.774 87.3149 191.247 101.083 198.903 111.541C200.39 113.571 199.343 116.495 196.89 117.055C195.587 117.353 194.231 116.874 193.422 115.811C184.512 104.097 173.656 87.1703 168.732 72.4125C166.127 64.6035 165.109 57.1752 167.167 51.5272C169.005 46.4793 173.233 43.0508 180.424 41.9122C182.235 41.6254 184 42.5204 185.027 44.0392C187.256 47.3336 184.854 51.7413 181.519 53.9093C179.532 55.2012 178.245 56.9352 177.501 58.9789C175.97 63.1803 176.645 68.943 178.864 75.5933Z" fill="#221D1D"/>
<path fill-rule="evenodd" clip-rule="evenodd" d="M240.902 77.3816C236.129 86.8302 232.699 100.226 230.735 111.329C230.315 113.707 227.408 114.721 225.644 113.072C224.932 112.406 224.588 111.437 224.734 110.473C226.734 97.2437 230.86 79.3861 237.162 66.9112C243.453 54.4598 252.018 47.2715 262.52 55.7683C263.784 56.7913 264.315 58.4487 264.074 60.0573C263.465 64.128 258.161 65.4936 254.046 65.4257C248.892 65.3408 244.536 70.19 240.902 77.3816Z" fill="#221D1D"/>
<path d="M208.029 314.243C203.964 314.758 200.459 313.899 197.514 311.667C194.647 309.325 192.97 306.231 192.483 302.385C191.984 298.441 192.831 294.978 195.023 291.995C197.306 289.001 200.481 287.247 204.546 286.732C208.522 286.229 211.943 287.148 214.81 289.49C217.767 291.821 219.495 294.958 219.994 298.902C220.481 302.748 219.583 306.168 217.3 309.162C215.095 312.046 212.005 313.74 208.029 314.243Z" fill="#221D1D"/>
<path fill-rule="evenodd" clip-rule="evenodd" d="M253.947 122.167C254.519 118.279 254.577 114.25 254.06 110.16C250.994 85.9441 228.877 68.7982 204.66 71.8642C180.444 74.9301 163.298 97.0468 166.364 121.263C166.882 125.353 167.943 129.24 169.465 132.863L253.947 122.167Z" fill="#221D1D"/>
<circle cx="195.015" cy="101.595" r="9.24353" transform="rotate(-7.21558 195.015 101.595)" fill="#FAFAFA"/>
<circle cx="231.696" cy="96.9537" r="9.24353" transform="rotate(-7.21558 231.696 96.9537)" fill="#FAFAFA"/>
</svg>
