<svg width="226" height="269" viewBox="0 0 226 269" fill="none" xmlns="http://www.w3.org/2000/svg">
<g clip-path="url(#clip0)">
<path fill-rule="evenodd" clip-rule="evenodd" d="M100.834 137.929L154.696 151.267L160.246 168.922L160.247 168.921L164.984 183.989L89.6451 207.672L93.9442 221.348L130.004 230.723L154.214 202.402L152.846 198.05L167.913 193.313L172.016 206.363L135.473 248.12L81.6103 234.782L64.2908 179.687L100.834 137.929ZM84.9085 192.604L145.179 173.658L142.364 164.705L106.304 155.33L82.094 183.651L84.9085 192.604Z" fill="#FFE000"/>
<ellipse rx="20.9623" ry="45.2535" transform="matrix(-0.969407 -0.24546 -0.24546 0.969407 107.361 56.5117)" fill="#B1B1B1"/>
<ellipse rx="20.9622" ry="45.2535" transform="matrix(-0.778134 -0.628098 -0.628098 0.778134 130.308 73.813)" fill="#B1B1B1"/>
<ellipse cx="54.2122" cy="77.1044" rx="20.9623" ry="45.2535" transform="rotate(-53.7151 54.2122 77.1044)" fill="#D2D2D2"/>
<ellipse cx="47.5137" cy="105.058" rx="20.9623" ry="45.2535" transform="rotate(-78.416 47.5137 105.058)" fill="#D2D2D2"/>
<path d="M137.916 66.3046L169.605 97.491L158.442 140.528L115.589 152.379L83.8993 121.192L95.0628 78.1552L137.916 66.3046Z" fill="#3D3939"/>
<path fill-rule="evenodd" clip-rule="evenodd" d="M140.778 44.5348C144.326 55.1687 152.012 67.6589 158.958 77.1463C160.307 78.9888 159.358 81.6414 157.132 82.1495C155.95 82.4192 154.72 81.9849 153.986 81.0203C145.902 70.3931 136.053 55.0375 131.587 41.6491C129.224 34.5647 128.3 27.8257 130.167 22.7018C131.835 18.1223 135.67 15.012 142.194 13.979C143.837 13.7188 145.438 14.5308 146.37 15.9086C148.392 18.8974 146.213 22.896 143.187 24.8629C141.385 26.0349 140.217 27.608 139.542 29.4621C138.153 33.2736 138.766 38.5015 140.778 44.5348Z" fill="#221D1D"/>
<path fill-rule="evenodd" clip-rule="evenodd" d="M197.06 46.1571C192.729 54.729 189.618 66.8814 187.837 76.9548C187.455 79.1119 184.818 80.0318 183.218 78.5356C182.572 77.9316 182.26 77.0525 182.392 76.1782C184.206 64.1762 187.949 47.9757 193.667 36.6583C199.374 25.3623 207.144 18.841 216.672 26.5494C217.819 27.4775 218.3 28.9811 218.082 30.4405C217.529 34.1334 212.718 35.3722 208.984 35.3107C204.308 35.2336 200.356 39.6329 197.06 46.1571Z" fill="#221D1D"/>
<path d="M167.238 261.039C163.549 261.506 160.369 260.727 157.698 258.702C155.097 256.577 153.576 253.77 153.134 250.282C152.681 246.703 153.449 243.561 155.439 240.856C157.51 238.139 160.39 236.548 164.078 236.081C167.684 235.624 170.788 236.458 173.389 238.583C176.072 240.697 177.639 243.544 178.092 247.122C178.534 250.611 177.719 253.713 175.648 256.429C173.648 259.046 170.844 260.582 167.238 261.039Z" fill="#221D1D"/>
<path fill-rule="evenodd" clip-rule="evenodd" d="M208.894 86.7866C209.413 83.2594 209.466 79.6038 208.997 75.894C206.215 53.9247 186.151 38.3698 164.181 41.1513C142.212 43.9327 126.657 63.9971 129.439 85.9665C129.908 89.6763 130.871 93.2033 132.252 96.4899L208.894 86.7866Z" fill="#221D1D"/>
<circle cx="155.431" cy="68.1235" r="8.3858" transform="rotate(-7.21558 155.431 68.1235)" fill="#FAFAFA"/>
<circle cx="188.708" cy="63.9126" r="8.3858" transform="rotate(-7.21558 188.708 63.9126)" fill="#FAFAFA"/>
</g>
<defs>
<clipPath id="clip0">
<rect width="226" height="269" fill="white"/>
</clipPath>
</defs>
</svg>

