<svg width="226" height="269" viewBox="0 0 226 269" fill="none" xmlns="http://www.w3.org/2000/svg">
<g clip-path="url(#clip0)">
<path fill-rule="evenodd" clip-rule="evenodd" d="M94.8338 137.929L148.696 151.267L154.246 168.922L154.247 168.921L158.984 183.989L83.6451 207.672L87.9442 221.348L124.004 230.723L148.214 202.402L146.846 198.05L161.913 193.313L166.016 206.363L129.473 248.12L75.6103 234.782L58.2908 179.687L94.8338 137.929ZM78.9085 192.604L139.179 173.658L136.364 164.705L100.304 155.33L76.094 183.651L78.9085 192.604Z" fill="#FFE000"/>
<ellipse rx="20.9623" ry="45.2535" transform="matrix(-0.969407 -0.24546 -0.24546 0.969407 101.361 56.5117)" fill="#B1B1B1"/>
<ellipse rx="20.9622" ry="45.2535" transform="matrix(-0.778134 -0.628098 -0.628098 0.778134 124.308 73.813)" fill="#B1B1B1"/>
<ellipse cx="48.2122" cy="77.1044" rx="20.9623" ry="45.2535" transform="rotate(-53.7151 48.2122 77.1044)" fill="#D2D2D2"/>
<ellipse cx="41.5137" cy="105.058" rx="20.9623" ry="45.2535" transform="rotate(-78.416 41.5137 105.058)" fill="#D2D2D2"/>
<path d="M131.916 66.3046L163.605 97.491L152.442 140.528L109.589 152.379L77.8993 121.192L89.0628 78.1552L131.916 66.3046Z" fill="#3D3939"/>
<path fill-rule="evenodd" clip-rule="evenodd" d="M134.778 44.5348C138.326 55.1687 146.012 67.6589 152.958 77.1463C154.307 78.9888 153.358 81.6414 151.132 82.1495C149.95 82.4192 148.72 81.9849 147.986 81.0203C139.902 70.3931 130.053 55.0375 125.587 41.6491C123.224 34.5647 122.3 27.8257 124.167 22.7018C125.835 18.1223 129.67 15.012 136.194 13.979C137.837 13.7188 139.438 14.5308 140.37 15.9086C142.392 18.8974 140.213 22.896 137.187 24.8629C135.385 26.0349 134.217 27.608 133.542 29.4621C132.153 33.2736 132.766 38.5015 134.778 44.5348Z" fill="#221D1D"/>
<path fill-rule="evenodd" clip-rule="evenodd" d="M191.06 46.1571C186.729 54.729 183.618 66.8814 181.837 76.9548C181.455 79.1119 178.818 80.0318 177.218 78.5356C176.572 77.9316 176.26 77.0525 176.392 76.1782C178.206 64.1762 181.949 47.9757 187.667 36.6583C193.374 25.3623 201.144 18.841 210.672 26.5494C211.819 27.4775 212.3 28.9811 212.082 30.4405C211.529 34.1334 206.718 35.3722 202.984 35.3107C198.308 35.2336 194.356 39.6329 191.06 46.1571Z" fill="#221D1D"/>
<path d="M161.238 261.039C157.549 261.506 154.369 260.727 151.698 258.702C149.097 256.577 147.576 253.77 147.134 250.282C146.681 246.703 147.449 243.561 149.439 240.856C151.51 238.139 154.39 236.548 158.078 236.081C161.684 235.624 164.788 236.458 167.389 238.583C170.072 240.697 171.639 243.544 172.092 247.122C172.534 250.611 171.719 253.713 169.648 256.429C167.648 259.046 164.844 260.582 161.238 261.039Z" fill="#221D1D"/>
<path fill-rule="evenodd" clip-rule="evenodd" d="M202.894 86.7866C203.413 83.2594 203.466 79.6038 202.997 75.894C200.215 53.9247 180.151 38.3698 158.181 41.1513C136.212 43.9327 120.657 63.9971 123.439 85.9665C123.908 89.6763 124.871 93.2033 126.252 96.4899L202.894 86.7866Z" fill="#221D1D"/>
<circle cx="149.431" cy="68.1235" r="8.3858" transform="rotate(-7.21558 149.431 68.1235)" fill="#FAFAFA"/>
<circle cx="182.708" cy="63.9126" r="8.3858" transform="rotate(-7.21558 182.708 63.9126)" fill="#FAFAFA"/>
</g>
<defs>
<clipPath id="clip0">
<rect width="226" height="269" fill="white"/>
</clipPath>
</defs>
</svg>
