<svg width="75" height="21" viewBox="0 0 75 21" fill="none" xmlns="http://www.w3.org/2000/svg">
<path d="M0 0.395508H9.99448C11.9395 0.395508 13.3934 0.819832 14.3562 1.66848C15.3191 2.51713 15.8005 3.79997 15.8005 5.517C15.8005 6.95773 15.5213 8.05308 14.9628 8.80305C14.4236 9.53328 13.5474 10.0365 12.3342 10.3129V10.4313C13.6437 10.7273 14.5777 11.2306 15.1361 11.9411C15.6946 12.6516 15.9738 13.7864 15.9738 15.3455C15.9738 17.1415 15.502 18.4934 14.5584 19.4013C13.6341 20.3091 12.1031 20.7631 9.96559 20.7631H0V0.395508ZM8.17467 8.50701C8.88719 8.50701 9.41676 8.45767 9.76339 8.35899C10.11 8.24057 10.3507 8.04321 10.4855 7.76691C10.6203 7.49061 10.6877 7.07615 10.6877 6.52354C10.6877 5.95119 10.6203 5.52687 10.4855 5.25057C10.37 4.97426 10.1389 4.78677 9.79227 4.68809C9.4649 4.58941 8.9257 4.54007 8.17467 4.54007H4.99724V8.50701H8.17467ZM8.3191 16.6185C9.05087 16.6185 9.59007 16.5692 9.9367 16.4705C10.2833 16.3521 10.524 16.1547 10.6588 15.8784C10.7936 15.6021 10.861 15.1679 10.861 14.5758C10.861 13.964 10.7936 13.5101 10.6588 13.214C10.5433 12.918 10.3026 12.7206 9.9367 12.622C9.59007 12.5036 9.05087 12.4443 8.3191 12.4443H4.99724V16.6185H8.3191Z" fill="#221D1D"/>
<path d="M32.1429 14.3982H23.3327C23.3327 15.3455 23.4001 16.0067 23.5349 16.3817C23.689 16.7567 24.0067 17.0034 24.4881 17.1218C24.9888 17.2402 25.8746 17.2994 27.1456 17.2994C28.5129 17.2994 29.9861 17.2205 31.5651 17.0626V20.467C30.9489 20.6249 30.1209 20.7532 29.081 20.8519C28.0603 20.9506 27.0493 20.9999 26.048 20.9999C23.7949 20.9999 22.1484 20.7532 21.1085 20.2598C20.0879 19.7467 19.4331 18.977 19.1443 17.9507C18.8554 16.9244 18.711 15.3554 18.711 13.2437C18.711 11.1714 18.8554 9.61222 19.1443 8.56622C19.4331 7.52021 20.059 6.74064 21.0218 6.2275C22.004 5.69463 23.5349 5.42819 25.6147 5.42819C27.6945 5.42819 29.1869 5.68476 30.092 6.1979C31.0163 6.6913 31.5844 7.44126 31.7962 8.4478C32.0273 9.4346 32.1429 11.0332 32.1429 13.2437V14.3982ZM25.5858 8.89186C24.8925 8.89186 24.3918 8.96094 24.0837 9.09909C23.7756 9.23724 23.5734 9.51355 23.4771 9.928C23.3808 10.3227 23.3327 10.9937 23.3327 11.9411H27.7811C27.7811 10.9937 27.7233 10.3129 27.6078 9.8984C27.4923 9.48394 27.2901 9.2175 27.0012 9.09909C26.7123 8.96094 26.2405 8.89186 25.5858 8.89186Z" fill="#221D1D"/>
<path d="M48.2143 14.3982H39.4041C39.4041 15.3455 39.4715 16.0067 39.6063 16.3817C39.7604 16.7567 40.0781 17.0034 40.5596 17.1218C41.0602 17.2402 41.9461 17.2994 43.217 17.2994C44.5843 17.2994 46.0575 17.2205 47.6366 17.0626V20.467C47.0203 20.6249 46.1923 20.7532 45.1524 20.8519C44.1318 20.9506 43.1208 20.9999 42.1194 20.9999C39.8663 20.9999 38.2198 20.7532 37.1799 20.2598C36.1593 19.7467 35.5046 18.977 35.2157 17.9507C34.9268 16.9244 34.7824 15.3554 34.7824 13.2437C34.7824 11.1714 34.9268 9.61222 35.2157 8.56622C35.5046 7.52021 36.1304 6.74064 37.0933 6.2275C38.0754 5.69463 39.6063 5.42819 41.6861 5.42819C43.7659 5.42819 45.2583 5.68476 46.1634 6.1979C47.0877 6.6913 47.6558 7.44126 47.8677 8.4478C48.0987 9.4346 48.2143 11.0332 48.2143 13.2437V14.3982ZM41.6572 8.89186C40.964 8.89186 40.4633 8.96094 40.1552 9.09909C39.847 9.23724 39.6448 9.51355 39.5486 9.928C39.4523 10.3227 39.4041 10.9937 39.4041 11.9411H43.8525C43.8525 10.9937 43.7948 10.3129 43.6792 9.8984C43.5637 9.48394 43.3615 9.2175 43.0726 9.09909C42.7838 8.96094 42.312 8.89186 41.6572 8.89186Z" fill="#221D1D"/>
<path d="M52.5904 20.837C53.4142 20.837 54.082 20.1692 54.082 19.3454V19.3139C54.082 18.4901 53.4142 17.8223 52.5904 17.8223C51.7667 17.8223 51.0989 18.4901 51.0989 19.3139V19.3454C51.0989 20.1692 51.7667 20.837 52.5904 20.837Z" fill="#FFE000"/>
<path d="M63.5714 20.6537C62.5616 20.8845 61.5183 20.9999 60.4413 20.9999C59.0815 20.9999 58.0785 20.803 57.4323 20.4092C56.7996 20.0018 56.3957 19.4383 56.2207 18.7186C56.0457 17.9988 55.9582 16.9736 55.9582 15.6428C55.9582 14.3527 56.0457 13.3478 56.2207 12.6281C56.4092 11.8948 56.8198 11.3245 57.4525 10.9171C58.0987 10.4961 59.0883 10.2856 60.4211 10.2856C61.5789 10.2856 62.602 10.4011 63.4906 10.6319V12.9948C62.7636 12.8861 62.0299 12.8318 61.2894 12.8318C60.6567 12.8318 60.1989 12.9065 59.9162 13.0559C59.647 13.1917 59.4652 13.4429 59.371 13.8095C59.2902 14.1762 59.2498 14.7873 59.2498 15.6428C59.2498 16.4983 59.2902 17.1162 59.371 17.4964C59.4652 17.863 59.647 18.1143 59.9162 18.2501C60.1989 18.3859 60.6634 18.4538 61.3096 18.4538C62.0231 18.4538 62.7771 18.3994 63.5714 18.2908V20.6537Z" fill="#FFE000"/>
<path d="M70.1332 20.9999C68.5984 20.9999 67.4945 20.8506 66.8214 20.5518C66.1482 20.2395 65.7174 19.737 65.5289 19.0445C65.3539 18.3383 65.2664 17.2044 65.2664 15.6428C65.2664 14.0676 65.3539 12.9337 65.5289 12.2411C65.7174 11.5485 66.1482 11.0529 66.8214 10.7541C67.4945 10.4418 68.5984 10.2856 70.1332 10.2856C71.6679 10.2856 72.7719 10.4418 73.445 10.7541C74.1182 11.0529 74.5422 11.5485 74.7173 12.2411C74.9057 12.9337 75 14.0676 75 15.6428C75 17.2044 74.9057 18.3383 74.7173 19.0445C74.5422 19.737 74.1182 20.2395 73.445 20.5518C72.7719 20.8506 71.6679 20.9999 70.1332 20.9999ZM70.1332 18.4538C70.6986 18.4538 71.0823 18.3994 71.2843 18.2908C71.4997 18.1686 71.6276 17.9377 71.6679 17.5982C71.7218 17.2588 71.7487 16.6069 71.7487 15.6428C71.7487 14.6651 71.7218 14.0064 71.6679 13.667C71.6276 13.3275 71.4997 13.1034 71.2843 12.9948C71.0823 12.8861 70.6986 12.8318 70.1332 12.8318C69.5678 12.8318 69.1773 12.8861 68.9619 12.9948C68.76 13.1034 68.6321 13.3275 68.5782 13.667C68.5379 14.0064 68.5177 14.6651 68.5177 15.6428C68.5177 16.6069 68.5379 17.2588 68.5782 17.5982C68.6321 17.9377 68.76 18.1686 68.9619 18.2908C69.1773 18.3994 69.5678 18.4538 70.1332 18.4538Z" fill="#FFE000"/>
</svg>
