<svg width="98" height="56" viewBox="0 0 98 56" fill="none" xmlns="http://www.w3.org/2000/svg">
<path fill-rule="evenodd" clip-rule="evenodd" d="M52.611 30.5415L63.1236 34.603L63.7915 38.3018L63.7916 38.3018L64.3616 41.4586L48.577 44.3087L49.0944 47.1743L56.1211 49.9833L61.7217 44.8943L61.557 43.9825L64.7143 43.4124L65.2078 46.146L56.7795 53.6275L46.267 49.566L44.1827 38.023L52.611 30.5415ZM48.007 41.1519L60.6342 38.8719L60.2956 36.9965L53.269 34.1875L47.6684 39.2765L48.007 41.1519Z" fill="#FFE000"/>
<ellipse rx="4.25742" ry="9.19096" transform="matrix(-0.930899 -0.365276 -0.365276 0.930899 56.0042 14.301)" fill="#B1B1B1"/>
<ellipse rx="4.25742" ry="9.19096" transform="matrix(-0.693081 -0.72086 -0.72086 0.693081 60.1866 18.3728)" fill="#B1B1B1"/>
<ellipse cx="44.7689" cy="17.0954" rx="4.25742" ry="9.19096" transform="rotate(-46.4995 44.7689 17.0954)" fill="#D2D2D2"/>
<ellipse cx="42.7064" cy="22.5568" rx="4.25742" ry="9.19096" transform="rotate(-71.2004 42.7064 22.5568)" fill="#D2D2D2"/>
<path d="M61.9102 17.0552L67.4998 24.1474L64.1526 32.5342L55.2158 33.8288L49.6262 26.7366L52.9734 18.3498L61.9102 17.0552Z" fill="#3D3939"/>
<path fill-rule="evenodd" clip-rule="evenodd" d="M63.7432 13.0653C64.3469 14.875 65.655 17.0006 66.8371 18.6152C67.0667 18.9288 66.9051 19.3802 66.5262 19.4667C66.3251 19.5126 66.1158 19.4387 65.9909 19.2745C64.6152 17.466 62.9391 14.8527 62.179 12.5742C61.7768 11.3686 61.6196 10.2217 61.9373 9.34976C62.2212 8.5704 62.8738 8.04108 63.984 7.86529C64.2636 7.82101 64.5362 7.9592 64.6948 8.19368C65.0389 8.70231 64.668 9.38281 64.1532 9.71753C63.8464 9.91698 63.6477 10.1847 63.5328 10.5002C63.2965 11.1489 63.4007 12.0386 63.7432 13.0653Z" fill="#221D1D"/>
<path fill-rule="evenodd" clip-rule="evenodd" d="M73.3216 13.3413C72.5845 14.8001 72.055 16.8682 71.7519 18.5826C71.6869 18.9497 71.2381 19.1062 70.9658 18.8516C70.8559 18.7488 70.8028 18.5992 70.8253 18.4504C71.134 16.4079 71.771 13.6508 72.7441 11.7248C73.7153 9.80244 75.0377 8.69264 76.6591 10.0045C76.8543 10.1624 76.9362 10.4183 76.8991 10.6667C76.8051 11.2951 75.9862 11.506 75.3508 11.4955C74.5551 11.4824 73.8825 12.231 73.3216 13.3413Z" fill="#221D1D"/>
<path d="M0 28.4399H12.5605C15.0048 28.4399 16.832 28.9668 18.042 30.0205C19.2521 31.0743 19.8571 32.6671 19.8571 34.7991C19.8571 36.588 19.5062 37.948 18.8044 38.8792C18.1267 39.7859 17.0256 40.4108 15.5009 40.7539V40.9009C17.1466 41.2685 18.3204 41.8934 19.0222 42.7756C19.724 43.6578 20.075 45.0669 20.075 47.0028C20.075 49.2328 19.482 50.9114 18.2962 52.0386C17.1345 53.1659 15.2105 53.7295 12.5242 53.7295H0V28.4399ZM10.2734 38.5117C11.1689 38.5117 11.8344 38.4504 12.27 38.3279C12.7057 38.1808 13.0082 37.9358 13.1776 37.5927C13.347 37.2496 13.4317 36.735 13.4317 36.0489C13.4317 35.3382 13.347 34.8113 13.1776 34.4683C13.0324 34.1252 12.742 33.8924 12.3063 33.7699C11.8949 33.6473 11.2173 33.5861 10.2734 33.5861H6.28023V38.5117H10.2734ZM10.4549 48.5834C11.3746 48.5834 12.0522 48.5221 12.4879 48.3996C12.9235 48.2526 13.226 48.0075 13.3954 47.6644C13.5648 47.3214 13.6495 46.7822 13.6495 46.0471C13.6495 45.2874 13.5648 44.7238 13.3954 44.3562C13.2502 43.9886 12.9477 43.7436 12.4879 43.621C12.0522 43.474 11.3746 43.4005 10.4549 43.4005H6.28023V48.5834H10.4549Z" fill="#221D1D"/>
<path d="M40.3952 45.8265H29.3231C29.3231 47.0028 29.4078 47.8237 29.5773 48.2893C29.7709 48.7549 30.1702 49.0612 30.7752 49.2083C31.4045 49.3553 32.5177 49.4288 34.115 49.4288C35.8333 49.4288 37.6847 49.3308 39.6692 49.1348V53.3619C38.8947 53.558 37.8541 53.7173 36.5472 53.8398C35.2646 53.9623 33.994 54.0236 32.7355 54.0236C29.904 54.0236 27.8348 53.7173 26.5279 53.1046C25.2452 52.4675 24.4224 51.5118 24.0594 50.2375C23.6964 48.9632 23.5148 47.015 23.5148 44.393C23.5148 41.8199 23.6964 39.884 24.0594 38.5852C24.4224 37.2864 25.2089 36.3184 26.419 35.6813C27.6533 35.0196 29.5773 34.6888 32.191 34.6888C34.8047 34.6888 36.6803 35.0074 37.8178 35.6445C38.9795 36.2572 39.6934 37.1884 39.9596 38.4381C40.25 39.6634 40.3952 41.6484 40.3952 44.393V45.8265ZM32.1547 38.9895C31.2834 38.9895 30.6542 39.0753 30.267 39.2468C29.8798 39.4184 29.6257 39.7614 29.5047 40.2761C29.3836 40.7662 29.3231 41.5993 29.3231 42.7756H34.9136C34.9136 41.5993 34.841 40.7539 34.6958 40.2393C34.5506 39.7247 34.2965 39.3939 33.9335 39.2468C33.5705 39.0753 32.9775 38.9895 32.1547 38.9895Z" fill="#221D1D"/>
<path d="M69.8708 53.8186C70.9048 53.8186 71.743 52.9804 71.743 51.9464V51.9022C71.743 50.8682 70.9048 50.03 69.8708 50.03C68.8368 50.03 67.9985 50.8682 67.9985 51.9022V51.9464C67.9985 52.9804 68.8368 53.8186 69.8708 53.8186Z" fill="#221D1D"/>
<path d="M83.6544 53.5882C82.387 53.8784 81.0773 54.0234 79.7254 54.0234C78.0186 54.0234 76.7596 53.776 75.9485 53.2811C75.1542 52.7691 74.6473 52.0608 74.4276 51.1563C74.2079 50.2518 74.0981 48.9634 74.0981 47.2909C74.0981 45.6696 74.2079 44.4067 74.4276 43.5022C74.6642 42.5807 75.1796 41.8639 75.9738 41.3519C76.785 40.8229 78.027 40.5583 79.7 40.5583C81.1533 40.5583 82.4376 40.7034 83.553 40.9935V43.963C82.6404 43.8265 81.7194 43.7582 80.79 43.7582C79.9958 43.7582 79.4212 43.8521 79.0663 44.0398C78.7284 44.2105 78.5002 44.5262 78.3819 44.987C78.2805 45.4478 78.2298 46.2157 78.2298 47.2909C78.2298 48.366 78.2805 49.1425 78.3819 49.6204C78.5002 50.0812 78.7284 50.3969 79.0663 50.5676C79.4212 50.7382 80.0042 50.8235 80.8154 50.8235C81.711 50.8235 82.6573 50.7553 83.6544 50.6188V53.5882Z" fill="#221D1D"/>
<path d="M91.891 54.0234C89.9645 54.0234 88.5788 53.8357 87.7339 53.4602C86.8889 53.0677 86.3482 52.4363 86.1116 51.5659C85.8919 50.6785 85.782 49.2535 85.782 47.2909C85.782 45.3112 85.8919 43.8862 86.1116 43.0159C86.3482 42.1455 86.8889 41.5226 87.7339 41.1471C88.5788 40.7546 89.9645 40.5583 91.891 40.5583C93.8174 40.5583 95.2032 40.7546 96.0481 41.1471C96.893 41.5226 97.4254 42.1455 97.645 43.0159C97.8816 43.8862 97.9999 45.3112 97.9999 47.2909C97.9999 49.2535 97.8816 50.6785 97.645 51.5659C97.4254 52.4363 96.893 53.0677 96.0481 53.4602C95.2032 53.8357 93.8174 54.0234 91.891 54.0234ZM91.891 50.8235C92.6007 50.8235 93.0823 50.7553 93.3358 50.6188C93.6062 50.4652 93.7668 50.175 93.8174 49.7484C93.885 49.3217 93.9188 48.5026 93.9188 47.2909C93.9188 46.0621 93.885 45.2344 93.8174 44.8078C93.7668 44.3811 93.6062 44.0995 93.3358 43.963C93.0823 43.8265 92.6007 43.7582 91.891 43.7582C91.1812 43.7582 90.6912 43.8265 90.4208 43.963C90.1673 44.0995 90.0068 44.3811 89.9392 44.8078C89.8885 45.2344 89.8631 46.0621 89.8631 47.2909C89.8631 48.5026 89.8885 49.3217 89.9392 49.7484C90.0068 50.175 90.1673 50.4652 90.4208 50.6188C90.6912 50.7553 91.1812 50.8235 91.891 50.8235Z" fill="#221D1D"/>
<path fill-rule="evenodd" clip-rule="evenodd" d="M75.6942 22.9771C75.8859 22.2842 75.9883 21.5542 75.9883 20.8003C75.9883 16.3027 72.3423 12.6567 67.8448 12.6567C63.3472 12.6567 59.7012 16.3027 59.7012 20.8003C59.7012 21.5542 59.8036 22.2842 59.9953 22.9771H75.6942Z" fill="#221D1D"/>
<circle cx="65.3931" cy="17.8677" r="1.70315" fill="#FAFAFA"/>
<circle cx="72.2056" cy="17.8677" r="1.70315" fill="#FAFAFA"/>
</svg>
